<?xml version="1.0" encoding="UTF-8"?>
<svg xmlns="http://www.w3.org/2000/svg" width="22" height="22" viewBox="0 0 22 22">
  <style type="text/css">.ColorScheme-Text { color: #232629; }</style>
  <path class="ColorScheme-Text" fill="currentColor" d="M11 2c-2.2 0-4 1.8-4 4v5c0 2.2 1.8 4 4 4s4-1.8 4-4V6c0-2.2-1.8-4-4-4zm-2 4c0-1.1.9-2 2-2s2 .9 2 2v5c0 1.1-.9 2-2 2s-2-.9-2-2V6z"/>
  <path class="ColorScheme-Text" fill="currentColor" d="M4.5 10c.6 0 1 .4 1 1 0 3 2.5 5.5 5.5 5.5s5.5-2.5 5.5-5.5c0-.6.4-1 1-1s1 .4 1 1c0 3.8-2.9 6.9-6.5 7.4V20h2c.6 0 1 .4 1 1s-.4 1-1 1H8c-.6 0-1-.4-1-1s.4-1 1-1h2v-1.6C6.4 17.9 3.5 14.8 3.5 11c0-.6.4-1 1-1z"/>
</svg>
