<?xml version="1.0" encoding="UTF-8" standalone="no"?>
<svg
   version="1.1"
   width="542"
   height="542"
   viewBox="0 0 542 542"
   shape-rendering="geometricPrecision"
   id="svg1"
   sodipodi:docname="qtnote-symbolic.svg"
   inkscape:version="1.4.3 (0d15f75042, 2025-12-25)"
   xmlns:inkscape="http://www.inkscape.org/namespaces/inkscape"
   xmlns:sodipodi="http://sodipodi.sourceforge.net/DTD/sodipodi-0.dtd"
   xmlns="http://www.w3.org/2000/svg"
   xmlns:svg="http://www.w3.org/2000/svg">
  <sodipodi:namedview
     id="namedview1"
     pagecolor="#ffffff"
     bordercolor="#000000"
     borderopacity="0.25"
     inkscape:showpageshadow="2"
     inkscape:pageopacity="0.0"
     inkscape:pagecheckerboard="0"
     inkscape:deskcolor="#d1d1d1"
     inkscape:zoom="2.9520295"
     inkscape:cx="258.97437"
     inkscape:cy="186.65125"
     inkscape:window-width="2560"
     inkscape:window-height="1008"
     inkscape:window-x="0"
     inkscape:window-y="0"
     inkscape:window-maximized="1"
     inkscape:current-layer="svg1" />
  <defs
     id="defs1" />
  <title
     id="title1">qtnote symbolic pencil outline</title>
  <desc
     id="desc1">Monochrome outline-only symbolic version with transparent background.</desc>
  <style
     id="current-color-scheme"
     type="text/css">.ColorScheme-Text { color: #232629; }</style>
  <path
     class="ColorScheme-Text"
     style="fill:currentColor;stroke:none"
     d="m 66.463815,422.40839 -34.47258,88.19073 87.883495,-34.5768 C 102.31101,439.94181 86.062635,456.2536 66.464665,422.40751 Z"
     id="path1" />
  <path
     class="ColorScheme-Text"
     style="fill:currentColor;stroke:none"
     d="m 400.70312,14.037109 c 0,0 -322.07195,321.299531 -322.438799,322.241551 -24.222005,62.19911 -48.675109,125.54874 -72.8249825,187.41857 -1.2852612,4.17395 -1.5205133,11.28834 1.3521472,14.50172 3.3755143,2.51813 13.2544813,0.6064 16.8046473,-0.62738 47.039716,-18.5195 129.495347,-51.4801 181.877497,-71.84941 108.2053,-106.55192 215.57525,-215.04284 323.44273,-323.35344 13.01127,-13.02923 13.01248,-34.50218 0,-47.531249 L 448.2168,14.035156 c -13.11178,-13.12847972 -34.40279,-13.12700828 -47.51368,0.002 z m 30.95714,16.533203 80.69921,80.802738 c 4.13728,4.14255 4.13759,10.31764 0,14.46093 0,0 -287.79065,288.96596 -319.37927,319.83627 0,0 -87.0349,34.21847 -156.550787,61.46092 C 63.152787,434.34235 75.087173,402.17096 94.766054,352.91836 197.15607,241.6366 309.82204,138.16007 417.26064,30.569686 c 4.00222,-4.007757 10.36389,-4.040243 14.39962,6.26e-4 z"
     id="pencil-outer-outline"
     sodipodi:nodetypes="cscccccssccccccsccc" />
  <rect
     class="ColorScheme-Text"
     style="fill:currentColor;stroke:none;stroke-width:1.42352"
     id="rect1"
     width="157.8524"
     height="18.444782"
     x="305.15533"
     y="-148.29935"
     transform="matrix(0.7121996,0.70197702,-0.70358395,0.71061215,0,0)" />
  <rect
     class="ColorScheme-Text"
     style="fill:currentColor;stroke:none;stroke-width:1.42352"
     id="rect1-5"
     width="157.8524"
     height="18.444782"
     x="314.71054"
     y="-220.00089"
     transform="matrix(0.7121996,0.70197702,-0.70358395,0.71061215,0,0)" />
  <rect
     class="ColorScheme-Text"
     style="fill:currentColor;stroke:none;stroke-width:1.36692"
     id="rect1-5-6-6-9"
     width="333.71188"
     height="20.930019"
     x="-197.01068"
     y="342.547"
     transform="matrix(0.70498952,-0.70921772,0.72532396,0.68840769,0,0)" />
  <rect
     class="ColorScheme-Text"
     style="fill:currentColor;stroke:none;stroke-width:1.36692"
     id="rect1-5-6-6-9-7"
     width="333.71188"
     height="20.930019"
     x="-201.17749"
     y="402.83105"
     transform="matrix(0.70498952,-0.70921772,0.72532396,0.68840769,0,0)" />
  <rect
     class="ColorScheme-Text"
     style="fill:currentColor;stroke:none;stroke-width:1.42352"
     id="rect1-2"
     width="157.8524"
     height="18.444782"
     x="307.41504"
     y="176.18852"
     transform="matrix(0.7121996,0.70197702,-0.70358395,0.71061215,0,0)" />
</svg>
