<?xml version="1.0" encoding="UTF-8" standalone="no"?>
<svg
   version="1.1"
   width="542"
   height="542"
   viewBox="0 0 542 542"
   shape-rendering="geometricPrecision"
   id="svg1"
   sodipodi:docname="qtnote-symbolic.svg"
   inkscape:version="1.4.3 (0d15f75042, 2025-12-25)"
   xmlns:inkscape="http://www.inkscape.org/namespaces/inkscape"
   xmlns:sodipodi="http://sodipodi.sourceforge.net/DTD/sodipodi-0.dtd"
   xmlns="http://www.w3.org/2000/svg"
   xmlns:svg="http://www.w3.org/2000/svg">
  <sodipodi:namedview
     id="namedview1"
     pagecolor="#ffffff"
     bordercolor="#000000"
     borderopacity="0.25"
     inkscape:showpageshadow="2"
     inkscape:pageopacity="0.0"
     inkscape:pagecheckerboard="0"
     inkscape:deskcolor="#d1d1d1"
     inkscape:zoom="1.4760147"
     inkscape:cx="110.09375"
     inkscape:cy="271.6775"
     inkscape:window-width="2560"
     inkscape:window-height="1008"
     inkscape:window-x="0"
     inkscape:window-y="0"
     inkscape:window-maximized="1"
     inkscape:current-layer="svg1" />
  <defs
     id="defs1" />
  <title
     id="title1">qtnote symbolic pencil outline</title>
  <desc
     id="desc1">Monochrome outline-only symbolic version with transparent background.</desc>
  <style
     id="current-color-scheme"
     type="text/css">.ColorScheme-Text { color: #232629; }</style>
  <path
     class="ColorScheme-Text"
     style="fill:currentColor;stroke:none;stroke-width:1.00318"
     d="M 58.995534,433.94996 24.799615,523.42113 111.97777,488.34231 C 94.555032,451.73794 78.437049,468.28657 58.996365,433.94908 Z"
     id="path1" />
  <path
     class="ColorScheme-Text"
     style="fill:currentColor;stroke:none;stroke-width:1.00318"
     d="m 390.55224,19.649676 c 0,0 -301.265125,308.636734 -301.629037,309.592424 -24.027578,63.10215 -38.399521,99.72036 -65.868918,179.67138 -1.274952,4.23454 -1.50832,11.45223 1.341296,14.71226 3.348416,2.55467 13.148083,0.6152 16.669764,-0.63648 C 92.746599,507.23317 166.91394,478.79235 218.87566,458.1273 326.21251,350.0284 410.73468,259.72761 517.73646,149.84448 c 12.90683,-13.2184 12.90804,-35.00311 0,-48.22133 L 437.68459,19.647679 C 424.67802,6.3285964 403.55791,6.330094 390.55224,19.649278 Z m 30.70868,16.77325 80.05152,81.975874 c 4.10407,4.20268 4.10436,10.46743 0,14.67088 0,0 -265.52735,280.17108 -296.86241,311.48958 0,0 -14.49664,4.34726 -150.654399,47.54762 0,0 30.470222,-79.84365 52.500679,-143.45658 101.56826,-112.89743 194.10424,-203.07556 300.68056,-312.228013 3.97011,-4.065943 10.28069,-4.098907 14.28405,6.39e-4 z"
     id="pencil-outer-outline"
     sodipodi:nodetypes="cscccccssccccccsccc" />
  <rect
     class="ColorScheme-Text"
     style="fill:currentColor;stroke:none;stroke-width:1.42819"
     id="rect1"
     width="158.34914"
     height="18.507893"
     x="296.63867"
     y="-194.61501"
     transform="matrix(0.70426738,0.70993483,-0.69555703,0.71847089,0,0)" />
  <rect
     class="ColorScheme-Text"
     style="fill:currentColor;stroke:none;stroke-width:1.24425"
     id="rect1-5-6-6-9-7"
     width="361.70044"
     height="16.000088"
     x="-176.26704"
     y="377.43802"
     transform="matrix(0.70027524,-0.71387295,0.71835732,0.69567432,0,0)" />
  <rect
     class="ColorScheme-Text"
     style="fill:currentColor;stroke:none;stroke-width:1.42819"
     id="rect1-2"
     width="158.34914"
     height="18.507893"
     x="304.50284"
     y="150.95892"
     transform="matrix(0.70426738,0.70993483,-0.69555703,0.71847089,0,0)" />
</svg>
