<?xml version="1.0" encoding="UTF-8" standalone="no"?>
<svg
   version="1.1"
   width="542"
   height="542"
   viewBox="0 0 542 542"
   shape-rendering="geometricPrecision"
   id="svg1"
   sodipodi:docname="qtnote-symbolic.svg"
   inkscape:version="1.4.3 (0d15f75042, 2025-12-25)"
   xmlns:inkscape="http://www.inkscape.org/namespaces/inkscape"
   xmlns:sodipodi="http://sodipodi.sourceforge.net/DTD/sodipodi-0.dtd"
   xmlns="http://www.w3.org/2000/svg"
   xmlns:svg="http://www.w3.org/2000/svg">
  <sodipodi:namedview
     id="namedview1"
     pagecolor="#ffffff"
     bordercolor="#000000"
     borderopacity="0.25"
     inkscape:showpageshadow="2"
     inkscape:pageopacity="0.0"
     inkscape:pagecheckerboard="0"
     inkscape:deskcolor="#d1d1d1"
     inkscape:zoom="0.73800737"
     inkscape:cx="129.4025"
     inkscape:cy="388.885"
     inkscape:window-width="2560"
     inkscape:window-height="1008"
     inkscape:window-x="0"
     inkscape:window-y="0"
     inkscape:window-maximized="1"
     inkscape:current-layer="svg1" />
  <defs
     id="defs1" />
  <title
     id="title1">qtnote symbolic pencil outline</title>
  <desc
     id="desc1">Monochrome outline-only symbolic version with transparent background.</desc>
  <style
     id="current-color-scheme"
     type="text/css">.ColorScheme-Text { color: #232629; }</style>
  <path
     class="ColorScheme-Text"
     style="fill:currentColor;stroke:none;stroke-width:0.954231"
     d="M 80.313763,411.85704 47.674127,496.66942 130.88474,463.41717 C 114.25492,428.71879 98.870479,444.40573 80.314556,411.8562 Z"
     id="path1" />
  <path
     class="ColorScheme-Text"
     style="fill:currentColor;stroke:none;stroke-width:0.954231"
     d="m 396.78106,19.129466 c 0,0 -287.55431,292.565944 -287.90166,293.471874 -22.934064,59.81641 -63.479561,137.16467 -86.34535,196.66442 -1.216928,4.01405 -1.439675,10.85591 1.280253,13.94619 3.196027,2.42165 12.549703,0.58317 15.91111,-0.60334 C 84.263966,504.79855 181.38072,460.7867 230.97762,441.19768 333.42949,338.72752 416.04499,246.70649 518.17703,142.545 c 12.31943,-12.53012 12.32059,-33.18049 0,-45.710434 L 441.76838,19.127573 C 429.35375,6.502018 409.19484,6.5034376 396.78106,19.129089 Z m 29.31111,15.899863 76.40831,77.707371 c 3.91729,3.98385 3.91757,9.92239 0,13.90696 0,0 -253.44299,265.58251 -283.35197,295.27025 0,0 -101.45257,45.22153 -167.272177,71.42037 C 77.178789,423.33384 105.8712,375.96946 124.50371,328.60363 221.44952,221.5848 310.73225,138.49758 412.4582,35.028723 c 3.78942,-3.854228 9.8128,-3.885476 13.63397,6.06e-4 z"
     id="pencil-outer-outline"
     sodipodi:nodetypes="cscccccssccccccsccc" />
  <rect
     class="ColorScheme-Text"
     style="fill:currentColor;stroke:none;stroke-width:1.35842"
     id="rect1"
     width="150.61993"
     height="17.603022"
     x="299.69995"
     y="-201.72838"
     transform="matrix(0.70671099,0.70750235,-0.69802911,0.71606938,0,0)" />
  <rect
     class="ColorScheme-Text"
     style="fill:currentColor;stroke:none;stroke-width:1.18358"
     id="rect1-5-6-6-9-7"
     width="344.03214"
     height="15.221209"
     x="-151.37895"
     y="376.49661"
     transform="matrix(0.70273217,-0.71145449,0.72075019,0.69319489,0,0)" />
  <rect
     class="ColorScheme-Text"
     style="fill:currentColor;stroke:none;stroke-width:1.35842"
     id="rect1-2"
     width="150.61993"
     height="17.603022"
     x="307.18027"
     y="126.95004"
     transform="matrix(0.70671099,0.70750235,-0.69802911,0.71606938,0,0)" />
</svg>
