<?xml version="1.0" encoding="UTF-8"?>
<!-- SPDX-License-Identifier: GPL-3.0-only -->
<svg xmlns="http://www.w3.org/2000/svg" width="16" height="16" viewBox="0 0 16 16">
  <path fill="#eeeeec" d="M3 1.5A1.5 1.5 0 0 0 1.5 3v10A1.5 1.5 0 0 0 3 14.5h6.6a1.5 1.5 0 0 0 1.06-.44l3.4-3.4a1.5 1.5 0 0 0 .44-1.06V3A1.5 1.5 0 0 0 13 1.5zm0 1h10a.5.5 0 0 1 .5.5v6H10a1 1 0 0 0-1 1v3.5H3a.5.5 0 0 1-.5-.5V3A.5.5 0 0 1 3 2.5zm7 8h2.8L10 13.3z"/>
  <path fill="#eeeeec" d="M4 4h7v1H4zm0 2.5h6v1H4zm0 2.5h3.5v1H4z"/>
</svg>
